<svg xmlns="http://www.w3.org/2000/svg" viewBox="0 0 512 512">
  <defs>
    <linearGradient id="bg" x1="0%" x2="100%" y1="0%" y2="100%">
      <stop offset="0%" stop-color="#142b39" />
      <stop offset="100%" stop-color="#071017" />
    </linearGradient>
    <linearGradient id="steel" x1="0%" x2="0%" y1="0%" y2="100%">
      <stop offset="0%" stop-color="#e6faff" />
      <stop offset="100%" stop-color="#87dce2" />
    </linearGradient>
    <linearGradient id="visor" x1="0%" x2="100%" y1="0%" y2="0%">
      <stop offset="0%" stop-color="#65f5ff" />
      <stop offset="100%" stop-color="#2cb8c9" />
    </linearGradient>
    <linearGradient id="warn" x1="0%" x2="100%" y1="0%" y2="100%">
      <stop offset="0%" stop-color="#ffcf67" />
      <stop offset="100%" stop-color="#ff8d58" />
    </linearGradient>
  </defs>
  <rect width="512" height="512" rx="120" fill="url(#bg)" />
  <path d="M 256 74 L 398 156 V 318 L 256 438 L 114 318 V 156 Z" fill="#0f2230" stroke="#2e5360" stroke-width="18" />
  <circle cx="256" cy="256" r="122" fill="rgba(101, 245, 255, 0.06)" stroke="rgba(101, 245, 255, 0.18)" stroke-width="10" />
  <rect x="176" y="168" width="160" height="154" rx="38" fill="url(#steel)" />
  <rect x="198" y="198" width="116" height="52" rx="24" fill="url(#visor)" />
  <circle cx="222" cy="224" r="10" fill="#e9ffff" />
  <circle cx="290" cy="224" r="10" fill="#e9ffff" />
  <path d="M 208 284 H 304" fill="none" stroke="#16323c" stroke-linecap="round" stroke-width="16" />
  <path d="M 336 202 L 390 182" fill="none" stroke="url(#warn)" stroke-linecap="round" stroke-width="22" />
  <path d="M 386 182 L 422 196" fill="none" stroke="#fff1c8" stroke-linecap="round" stroke-width="14" />
  <path d="M 152 150 L 188 120" fill="none" stroke="#5feeff" stroke-linecap="round" stroke-width="14" />
  <path d="M 360 120 L 332 154" fill="none" stroke="#5feeff" stroke-linecap="round" stroke-width="14" />
  <circle cx="390" cy="182" r="18" fill="none" stroke="#ffcf67" stroke-width="10" />
</svg>
